<mxfile host="app.diagrams.net" modified="2021-05-21T15:06:38.139Z" agent="5.0 (Windows NT 10.0; Win64; x64) AppleWebKit/537.36 (KHTML, like Gecko) Chrome/90.0.4430.212 Safari/537.36" etag="aAP79Ki1WltGA8GTBh8-" version="14.6.9" type="github">
  <diagram id="prtHgNgQTEPvFCAcTncT" name="Page-1">
    <mxGraphModel dx="1240" dy="689" grid="1" gridSize="10" guides="1" tooltips="1" connect="1" arrows="1" fold="1" page="1" pageScale="1" pageWidth="827" pageHeight="1169" math="0" shadow="0">
      <root>
        <mxCell id="0" />
        <mxCell id="1" parent="0" />
        <mxCell id="QF56LF_c3IterSSFjhCM-17" value="" style="group" vertex="1" connectable="0" parent="1">
          <mxGeometry x="94" y="60" width="640" height="660" as="geometry" />
        </mxCell>
        <mxCell id="QF56LF_c3IterSSFjhCM-2" value="" style="shape=table;html=1;whiteSpace=wrap;startSize=0;container=1;collapsible=0;childLayout=tableLayout;shadow=0;" vertex="1" parent="QF56LF_c3IterSSFjhCM-17">
          <mxGeometry y="20" width="640" height="640" as="geometry" />
        </mxCell>
        <mxCell id="QF56LF_c3IterSSFjhCM-3" value="" style="shape=partialRectangle;html=1;whiteSpace=wrap;collapsible=0;dropTarget=0;pointerEvents=0;fillColor=none;top=0;left=0;bottom=0;right=0;points=[[0,0.5],[1,0.5]];portConstraint=eastwest;" vertex="1" parent="QF56LF_c3IterSSFjhCM-2">
          <mxGeometry width="640" height="640" as="geometry" />
        </mxCell>
        <mxCell id="QF56LF_c3IterSSFjhCM-4" value="" style="shape=partialRectangle;html=1;whiteSpace=wrap;connectable=0;overflow=hidden;fillColor=none;top=0;left=0;bottom=0;right=0;" vertex="1" parent="QF56LF_c3IterSSFjhCM-3">
          <mxGeometry width="640" height="640" as="geometry" />
        </mxCell>
        <mxCell id="QF56LF_c3IterSSFjhCM-1" value="Register" style="shape=folder;spacingTop=10;tabWidth=100;tabHeight=25;tabPosition=left;html=1;fontSize=14;" vertex="1" parent="QF56LF_c3IterSSFjhCM-17">
          <mxGeometry x="45" y="80" width="150" height="105" as="geometry" />
        </mxCell>
        <mxCell id="QF56LF_c3IterSSFjhCM-5" value="" style="shape=table;html=1;whiteSpace=wrap;startSize=0;container=1;collapsible=0;childLayout=tableLayout;" vertex="1" parent="QF56LF_c3IterSSFjhCM-17">
          <mxGeometry x="525" width="80" height="40" as="geometry" />
        </mxCell>
        <mxCell id="QF56LF_c3IterSSFjhCM-6" value="" style="shape=partialRectangle;html=1;whiteSpace=wrap;collapsible=0;dropTarget=0;pointerEvents=0;fillColor=none;top=0;left=0;bottom=0;right=0;points=[[0,0.5],[1,0.5]];portConstraint=eastwest;" vertex="1" parent="QF56LF_c3IterSSFjhCM-5">
          <mxGeometry width="80" height="40" as="geometry" />
        </mxCell>
        <mxCell id="QF56LF_c3IterSSFjhCM-7" value="&lt;h3&gt;CSCI&lt;/h3&gt;" style="shape=partialRectangle;html=1;whiteSpace=wrap;connectable=0;overflow=hidden;fillColor=none;top=0;left=0;bottom=0;right=0;" vertex="1" parent="QF56LF_c3IterSSFjhCM-6">
          <mxGeometry width="80" height="40" as="geometry" />
        </mxCell>
        <mxCell id="QF56LF_c3IterSSFjhCM-9" value="Logout" style="shape=folder;spacingTop=10;tabWidth=100;tabHeight=25;tabPosition=left;html=1;fontSize=14;" vertex="1" parent="QF56LF_c3IterSSFjhCM-17">
          <mxGeometry x="445" y="80" width="150" height="105" as="geometry" />
        </mxCell>
        <mxCell id="QF56LF_c3IterSSFjhCM-10" value="Reservation" style="shape=folder;spacingTop=10;tabWidth=100;tabHeight=25;tabPosition=left;html=1;fontSize=14;" vertex="1" parent="QF56LF_c3IterSSFjhCM-17">
          <mxGeometry x="45" y="230" width="150" height="105" as="geometry" />
        </mxCell>
        <mxCell id="QF56LF_c3IterSSFjhCM-11" value="View Services" style="shape=folder;spacingTop=10;tabWidth=100;tabHeight=25;tabPosition=left;html=1;fontSize=14;" vertex="1" parent="QF56LF_c3IterSSFjhCM-17">
          <mxGeometry x="45" y="390" width="150" height="105" as="geometry" />
        </mxCell>
        <mxCell id="QF56LF_c3IterSSFjhCM-12" value="Login" style="shape=folder;spacingTop=10;tabWidth=100;tabHeight=25;tabPosition=left;html=1;fontSize=14;" vertex="1" parent="QF56LF_c3IterSSFjhCM-17">
          <mxGeometry x="245" y="80" width="150" height="105" as="geometry" />
        </mxCell>
        <mxCell id="QF56LF_c3IterSSFjhCM-13" value="View Booking&lt;span style=&quot;color: rgba(0 , 0 , 0 , 0) ; font-family: monospace ; font-size: 0px&quot;&gt;%3CmxGraphModel%3E%3Croot%3E%3CmxCell%20id%3D%220%22%2F%3E%3CmxCell%20id%3D%221%22%20parent%3D%220%22%2F%3E%3CmxCell%20id%3D%222%22%20value%3D%22%22%20style%3D%22shape%3Dfolder%3BspacingTop%3D10%3BtabWidth%3D100%3BtabHeight%3D25%3BtabPosition%3Dleft%3Bhtml%3D1%3B%22%20vertex%3D%221%22%20parent%3D%221%22%3E%3CmxGeometry%20x%3D%22220%22%20y%3D%22130%22%20width%3D%22150%22%20height%3D%22105%22%20as%3D%22geometry%22%2F%3E%3C%2FmxCell%3E%3C%2Froot%3E%3C%2FmxGraphModel%3E&lt;/span&gt;" style="shape=folder;spacingTop=10;tabWidth=100;tabHeight=25;tabPosition=left;html=1;fontSize=14;" vertex="1" parent="QF56LF_c3IterSSFjhCM-17">
          <mxGeometry x="245" y="230" width="150" height="105" as="geometry" />
        </mxCell>
        <mxCell id="QF56LF_c3IterSSFjhCM-14" value="Approve Booking" style="shape=folder;spacingTop=10;tabWidth=100;tabHeight=25;tabPosition=left;html=1;fontSize=14;" vertex="1" parent="QF56LF_c3IterSSFjhCM-17">
          <mxGeometry x="445" y="230" width="150" height="105" as="geometry" />
        </mxCell>
        <mxCell id="QF56LF_c3IterSSFjhCM-15" value="Report" style="shape=folder;spacingTop=10;tabWidth=100;tabHeight=25;tabPosition=left;html=1;fontSize=14;" vertex="1" parent="QF56LF_c3IterSSFjhCM-17">
          <mxGeometry x="245" y="390" width="150" height="105" as="geometry" />
        </mxCell>
        <mxCell id="QF56LF_c3IterSSFjhCM-16" value="Security" style="shape=folder;spacingTop=10;tabWidth=100;tabHeight=25;tabPosition=left;html=1;fontSize=14;" vertex="1" parent="QF56LF_c3IterSSFjhCM-17">
          <mxGeometry x="445" y="390" width="150" height="105" as="geometry" />
        </mxCell>
      </root>
    </mxGraphModel>
  </diagram>
</mxfile>
